<svg width="15" height="14" viewBox="0 0 15 14" fill="none" xmlns="http://www.w3.org/2000/svg">
<path d="M2.71405 2.28595C5.31761 -0.317613 9.53857 -0.317613 12.1421 2.28595C14.7457 4.88952 14.7457 9.11048 12.1421 11.714C9.53857 14.3176 5.31761 14.3176 2.71405 11.714C0.110478 9.11048 0.110478 4.88952 2.71405 2.28595ZM5.07107 4.64298C4.98564 4.72842 4.93403 4.8419 4.9258 4.96245C4.91757 5.08299 4.95326 5.20244 5.02628 5.2987L5.07107 5.35008L6.72098 7L5.07107 8.64992C4.98152 8.73952 4.92932 8.85978 4.92502 8.98639C4.92072 9.113 4.96464 9.23652 5.0479 9.33199C5.13116 9.42747 5.24757 9.48778 5.37358 9.50074C5.4996 9.5137 5.62584 9.47834 5.72679 9.40181L5.77817 9.35702L7.42809 7.70711L9.07801 9.35702C9.16761 9.44657 9.28787 9.49877 9.41448 9.50307C9.54109 9.50737 9.66461 9.46345 9.76008 9.38019C9.85556 9.29693 9.91587 9.18053 9.92883 9.05451C9.94179 8.92849 9.90643 8.80225 9.8299 8.7013L9.78511 8.64992L8.1352 7L9.78511 5.35008C9.87466 5.26048 9.92686 5.14022 9.93116 5.01361C9.93546 4.887 9.89154 4.76348 9.80828 4.66801C9.72502 4.57253 9.60862 4.51222 9.4826 4.49926C9.35658 4.4863 9.23034 4.52166 9.12939 4.59819L9.07801 4.64298L7.42809 6.29289L5.77817 4.64298C5.68441 4.54921 5.55723 4.49653 5.42462 4.49653C5.29201 4.49653 5.16484 4.54921 5.07107 4.64298Z" fill="#717384" style="fill:#717384;fill:color(display-p3 0.4413 0.4529 0.5187);fill-opacity:1;"/>
</svg>
