<svg width="16" height="16" viewBox="0 0 16 16" fill="none" xmlns="http://www.w3.org/2000/svg">
<path d="M6.83299 1.83331C7.76497 1.83328 8.67842 2.09372 9.47024 2.58526C10.2621 3.0768 10.9008 3.77987 11.3142 4.61512C11.7277 5.45037 11.8995 6.38455 11.8102 7.31225C11.7209 8.23995 11.3741 9.12424 10.809 9.86531L13.971 13.0286C14.0906 13.1486 14.16 13.3096 14.1651 13.4789C14.1703 13.6482 14.1108 13.8131 13.9988 13.9402C13.8868 14.0672 13.7306 14.1468 13.562 14.1629C13.3934 14.179 13.225 14.1303 13.091 14.0266L13.0283 13.9713L9.86499 10.8093C9.23366 11.2907 8.49676 11.6148 7.71528 11.7549C6.9338 11.895 6.13021 11.8469 5.37099 11.6147C4.61177 11.3825 3.91876 10.9729 3.34929 10.4197C2.77983 9.86647 2.35028 9.18561 2.09621 8.43344C1.84213 7.68126 1.77082 6.87939 1.88819 6.09419C2.00555 5.30898 2.30821 4.56301 2.77112 3.918C3.23403 3.27299 3.84388 2.74748 4.55022 2.38497C5.25655 2.02246 6.03906 1.83335 6.83299 1.83331ZM6.83299 3.16665C5.86053 3.16665 4.9279 3.55295 4.24026 4.24059C3.55263 4.92822 3.16632 5.86085 3.16632 6.83331C3.16632 7.80577 3.55263 8.7384 4.24026 9.42604C4.9279 10.1137 5.86053 10.5 6.83299 10.5C7.80545 10.5 8.73808 10.1137 9.42571 9.42604C10.1133 8.7384 10.4997 7.80577 10.4997 6.83331C10.4997 5.86085 10.1133 4.92822 9.42571 4.24059C8.73808 3.55295 7.80545 3.16665 6.83299 3.16665Z" fill="#717384" style="fill:#717384;fill:color(display-p3 0.4431 0.4510 0.5176);fill-opacity:1;"/>
</svg>
