<svg width="16" height="16" viewBox="0 0 16 16" fill="none" xmlns="http://www.w3.org/2000/svg">
<path d="M3.49992 2.66663H12.4999C13.0533 2.66659 13.5858 2.87833 13.9881 3.25841C14.3903 3.63849 14.6319 4.15809 14.6633 4.71063L14.6666 4.83329V11.1666C14.6666 11.7201 14.4549 12.2525 14.0748 12.6548C13.6947 13.057 13.1751 13.2986 12.6226 13.33L12.4999 13.3333H3.49992C2.94649 13.3333 2.41403 13.1216 2.01176 12.7415C1.6095 12.3614 1.36792 11.8418 1.33659 11.2893L1.33325 11.1666V4.83329C1.33322 4.27987 1.54495 3.74741 1.92503 3.34514C2.30511 2.94287 2.82471 2.70129 3.37725 2.66996L3.49992 2.66663ZM13.6666 6.24863L8.23325 9.10863C8.1719 9.14104 8.10448 9.16032 8.03527 9.16526C7.96606 9.17019 7.89658 9.16067 7.83125 9.13729L7.76725 9.10929L2.33325 6.24929V11.1666C2.33326 11.4594 2.44337 11.7415 2.64171 11.9569C2.84004 12.1723 3.11212 12.3052 3.40392 12.3293L3.49992 12.3333H12.4999C12.7928 12.3333 13.075 12.2231 13.2904 12.0246C13.5058 11.8261 13.6387 11.5539 13.6626 11.262L13.6666 11.1666V6.24863ZM12.4999 3.66663H3.49992C3.20713 3.66664 2.92504 3.77674 2.70966 3.97508C2.49428 4.17342 2.36134 4.44549 2.33725 4.73729L2.33325 4.83329V5.11929L7.99992 8.10129L13.6666 5.11863V4.83329C13.6666 4.54039 13.5564 4.25822 13.3579 4.04282C13.1594 3.82742 12.8872 3.69456 12.5953 3.67063L12.4999 3.66663Z" fill="white" style="fill:white;fill-opacity:1;"/>
</svg>
